<?xml version="1.0" encoding="UTF-8"?>
<!DOCTYPE svg PUBLIC "-//W3C//DTD SVG 1.1//EN" "http://www.w3.org/Graphics/SVG/1.1/DTD/svg11.dtd">
<!-- Creator: CorelDRAW 2018 (64 Bit Versión de evaluación) -->
<svg xmlns="http://www.w3.org/2000/svg" xml:space="preserve" width="30mm" height="10mm" version="1.1" style="shape-rendering:geometricPrecision; text-rendering:geometricPrecision; image-rendering:optimizeQuality; fill-rule:evenodd; clip-rule:evenodd"
viewBox="0 0 3000 1000"
 xmlns:xlink="http://www.w3.org/1999/xlink">
 <defs>
  <style type="text/css">
   <![CDATA[
    .str0 {stroke:#373435;stroke-width:16.93;stroke-miterlimit:22.9256}
    .fil2 {fill:#FEFEFE}
    .fil0 {fill:#ED3237}
    .fil1 {fill:#00A859}
    .fil3 {fill:#1C1C1C}
   ]]>
  </style>
 </defs>
 <g id="Capa_x0020_1">
  <metadata id="CorelCorpID_0Corel-Layer"/>
  <ellipse class="fil0" cx="1998.75" cy="482.98" rx="372.52" ry="360.11"/>
  <ellipse class="fil1" cx="868.75" cy="482.98" rx="372.52" ry="360.11"/>
  <ellipse class="fil2 str0" cx="1429.07" cy="499.05" rx="501.66" ry="484.95"/>
  <path class="fil3" d="M1537.95 522.66l-10.29 4.32c-28.69,16.07 -62.37,33.97 -86.27,57.18 -18.92,18.36 -52.67,57.34 -71.36,69.85 -13.06,-19.53 -17.78,-22.99 -49.25,-22.99 2.74,-7.57 99.62,-91.95 112.47,-104.26 21.19,-20.3 94.49,-60.63 100.84,-54.21 8.11,8.19 -13.62,33.96 9.98,40.26 -2.23,9.34 0.41,4.59 -6.12,9.85zm-11.49 0l3.35 -8.7 -12 3c-14.74,-0.42 -31.46,12.31 -42.54,18.98 -43.51,26.16 -39.57,41.31 -11.33,21.63 7.42,-5.19 12,-8.6 19.94,-13 14.27,-7.91 30.43,-13.71 42.58,-21.91zm-25.08 -52.13c-17.16,2.96 -37.13,17.76 -51.22,27.18 -72.4,48.34 -92.56,85.67 -129.38,110.32 0.57,-6.89 3.99,-14.49 3.98,-14.63 -0.2,-2.25 5.36,-0.59 -2.37,-3.69 -11.49,-4.62 -7.77,1.16 -8.23,1.4 -10.8,5.62 -17.17,22.77 -13.9,-6.07l2.83 -10.34c-9.29,4.96 -2.23,-0.85 -10.76,7.93 -6.72,6.91 -1.74,4.37 -10.95,10.24l-3.29 -0.25 -16.36 -9.94 3.23 -9.06c2.04,-6.76 2.41,-5.88 4.13,-14.84l1.03 -8.89 -8.44 -0.74c-8.08,5.55 -7.05,4.15 -9.86,16.2 -39.31,-3.28 -47.81,-61.52 -22.35,-88.03 6.49,-6.75 18.07,-15.23 25.55,-20.34 3.15,-6.72 1.23,-0.81 2.77,-11.19l-9.24 0.34c-50.42,19.08 -14.95,-33.36 -5.56,-43.96 8.76,-9.88 10.89,-5.98 12.11,-20.71 -16.74,1.39 -15.26,10.06 -19.69,-6.57 29.19,-6.8 24.68,8.29 63.07,-5.89l6.94 -2.91c0.5,-0.21 1.54,-0.62 2.23,-1.05l3.83 2.74c-2.08,5.52 -24.8,3.7 -30.1,23.53 43.64,0 68.72,-38.1 85.37,-49.26l49.26 42.69c-14.65,0.33 -40.8,8.5 -51.25,14.43 -23.98,13.62 -30.46,17.52 -30.84,34.83 23.07,-6.16 19.08,-23.13 68.57,-33.22 50.49,-10.31 37.05,0.41 79.19,10.23 -0.69,31.06 -33.33,43.55 -62.38,45.97 -0.75,8.87 -1.55,8.94 -3.29,16.42 15.33,-8.11 38.85,-16.42 62.39,-16.42l0 6.57c-8.22,0.69 -50.65,13.37 -52.54,36.12 13.78,-3.68 32.9,-20.66 51.69,-27.19 10.55,-3.68 10.77,-0.39 19.29,-5.64 8.24,-5.71 6.77,-4.35 15.19,-3.75l-10.65 7.44zm-187.17 -108.77l0.98 0.97c-0.06,-0.06 -1.3,-0.64 -0.98,-0.97zm114.94 -164.19c-21.96,-32.78 -30.47,-83.82 -77.79,-106.1 -102.51,-48.29 -224.99,81.25 -192.03,198.6 8.26,29.4 38.07,72.63 66.23,74.97 -2.1,25.27 -12.22,9.68 3.28,32.84 -35.37,52.81 -21.3,43.75 -15.38,64.69 4.56,16.06 -25.98,28.53 -15.16,70.84 9.93,38.85 39.98,41.08 48,47.3 7.44,5.76 3.83,6.8 8.95,14.05 8.62,12.23 1.31,2.02 34.47,14.79 7.11,2.73 13.52,4.41 21.21,5.05 -5.61,8.37 -5.62,10.25 -16.42,13.13 1.31,15.79 -1.26,8.91 39,23.41l46.38 16c8.58,-23.69 130.92,-133.5 183.89,-137.91 -1.56,-18.62 0.61,-1.81 -4.86,-14.86 -15.45,-36.91 -4.4,-35.4 -3.69,-52.86 0.61,-15.21 -6.02,-1.37 -25.65,-6.44 -15.99,-4.15 5.46,-3.77 -13.74,-3.2 -3.61,0.11 -13.69,1.83 -21.02,1.83l-9.15 -10.56c2.34,-10.69 2.05,-4.29 6.94,-15.71l4.21 -17.69 11.14 -2.71c22.88,1.89 45.5,-8.68 60.27,-17.83l31.56 -27.79c37.45,-64.89 11.21,-35.1 5.12,-23.7l-11.58 10.89c-6.56,3.48 -58.12,79.65 -155.48,30.72 -48.6,-24.41 -49.62,-42.33 -74.68,-66.52 -0.68,-0.67 -2.71,-2.51 -3.42,-3.15 -12.18,-11.07 -30.74,-25.52 -48.82,-16.86 5.71,21.39 32.56,16.1 45.97,36.13 -15.09,4.03 -21.04,18.38 -32.83,26.27 -9.19,-25.38 -33.37,12.61 -89.16,-6.07 -28.57,-9.56 -44.62,-31.45 -56.41,-58.53 -20.96,-48.12 6.52,-132.73 53.54,-168.63 54.9,-41.9 124.33,-35.61 153.38,27.39 6.71,14.56 10.84,25.19 17.45,38.37 12.06,24.04 25.36,58.14 38.68,79.54 9.36,15.04 18.52,19.45 27,32.11l-16.42 0c2.85,10.7 0.21,4.55 8.2,11.49 11.79,10.24 29.08,17.79 44.33,21.34 -2.94,-35.39 -57.19,-56.94 -72.23,-121.49 41.8,0 110.55,-12.53 146.72,19.27 10.92,9.59 10.53,-43.33 -150,-32.41z"/>
  <path class="fil3" d="M1821.88 494.44c5.81,21.98 -1.51,42.14 -8.58,54.46 -23.61,41.17 -61.53,49.15 -102.5,58.66 -26.36,6.11 -30.67,-5.88 -86.55,5.12 -21.32,4.19 -51.85,17.49 -64.88,33.64 -8.32,10.32 -5.44,10.74 -5.44,27.39 21.5,14.39 16.81,18.01 44.11,1.43 65.8,-39.97 117.91,-18.49 197.95,-77.88 30.54,-22.66 48.56,-51.13 43.34,-93.98 -7.27,-59.52 -104.72,-90.79 -109.01,4.42 1.17,2.13 3.15,1.19 3.74,-0.12 15.71,-34.67 47.19,-76.5 87.82,-13.14z"/>
  <path class="fil3" d="M1348.78 819.16c2.83,1.48 2.28,-8.53 -3.17,-10.91 -101.35,-15.82 -77.86,119.47 15.08,109.22 24.11,-2.66 27.83,-4.84 46.96,-12.41 33.81,-13.37 70.23,-60.77 83.49,-93.84 16.08,-40.08 21.6,-58.99 53.83,-93.93 30.01,-32.53 -10.49,-46.26 -24.45,-41.19 -13.84,5.03 -32.01,38.91 -39.33,52.94 -31.23,59.79 -24.22,95.51 -74.19,145.81 -11.03,11.09 -20.16,20.84 -36.76,25.72 -96.52,28.4 -97.14,-120.98 -21.46,-81.41z"/>
  <path class="fil3" d="M1593.33 348.6c30.58,-28.76 -2.3,23.88 22.04,-14.22 8.76,-23.04 9.29,-39.6 2.25,-62.58l-10.95 -22.73c-57.28,-61.12 -36.42,-24.25 -35,-24.77 37.48,38.62 57.3,66.59 21.66,124.3z"/>
  <path class="fil3" d="M1337.75 562.06l-2.99 12.89c10.84,-4.34 7.85,-4.65 15.58,-14.84 7.91,-9.69 16.33,-25.81 23.09,-37.34 9.34,-15.9 15.96,-20.26 27.45,-32.95 0,-6.25 -1.79,-5.08 3.7,-5.08l2.25 -8.08 -7.24 0.1c-12.72,6.57 -11.8,3.1 -21.13,14.92 -7.02,8.9 -9.9,10.11 -16.4,19.71 -7.52,11.08 -22.38,38.04 -24.31,50.67z"/>
 </g>
</svg>
